<svg width="20" height="20" viewBox="0 0 20 20" fill="none" xmlns="http://www.w3.org/2000/svg">
<path fill-rule="evenodd" clip-rule="evenodd" d="M14.123 0.0637988C12.283 -0.0220346 7.72553 -0.0178679 5.88387 0.0637988C4.26553 0.139632 2.83803 0.530465 1.6872 1.6813C-0.0338905 3.40239 -0.0180143 5.65865 0.00435446 8.83762C0.00698296 9.21117 0.00970111 9.59747 0.00970111 9.99713C0.00970111 10.3712 0.00769769 10.7327 0.00576032 11.0823C-0.0124499 14.3681 -0.0248241 16.6009 1.6872 18.313C3.41145 20.0365 5.69258 20.0195 8.83564 19.9962C9.21223 19.9934 9.60118 19.9905 10.003 19.9905H10.0573C13.8689 19.9905 15.1928 19.9905 16.5489 19.4655C18.4014 18.7463 19.7997 17.0905 19.9364 14.1163C20.023 12.2755 20.018 7.7188 19.9364 5.87713C19.7714 2.3663 17.8872 0.237132 14.123 0.0637988ZM17.0355 17.0405C15.8744 18.2016 14.299 18.198 10.8964 18.1902L10.8946 18.1902C10.6031 18.1895 10.2981 18.1888 9.97887 18.1888L9.40652 18.1891C5.65581 18.1918 4.08395 18.1929 2.9222 17.028C1.71358 15.8251 1.73357 13.9949 1.76258 11.3388C1.76727 10.909 1.7722 10.4576 1.7722 9.9838C1.7722 9.58197 1.7686 9.18995 1.7651 8.80893C1.72852 4.8243 1.70299 2.04314 5.92053 1.82713L5.96836 1.82544C6.99223 1.78926 7.33526 1.77713 9.9672 1.77713L10.0047 1.80213C10.3852 1.80213 10.7587 1.79872 11.1237 1.79538L11.1237 1.79538C15.0186 1.75978 17.9476 1.733 18.1389 5.95713C18.1864 7.0113 18.1972 7.32797 18.1972 9.9963C18.1972 10.2362 18.1974 10.4679 18.1976 10.6917C18.201 14.309 18.2025 15.868 17.0355 17.0405ZM10.0031 4.86517C7.16725 4.86517 4.87142 7.16351 4.87142 9.99684C4.87142 12.8327 7.16975 15.1285 10.0031 15.1285C12.8389 15.1285 15.1348 12.8302 15.1348 9.99684C15.1348 7.16101 12.8364 4.86517 10.0031 4.86517ZM10.0031 13.3277C8.16225 13.3277 6.67225 11.8368 6.67225 9.99684C6.67225 8.15684 8.16309 6.66601 10.0031 6.66601C11.8431 6.66601 13.3339 8.15684 13.3339 9.99684C13.3348 11.8368 11.8439 13.3277 10.0031 13.3277ZM16.5373 4.66269C16.5373 5.32497 16.0004 5.86185 15.3381 5.86185C14.6758 5.86185 14.1389 5.32497 14.1389 4.66269C14.1389 4.00041 14.6758 3.46352 15.3381 3.46352C16.0004 3.46352 16.5373 4.00041 16.5373 4.66269Z" fill="black"/>
</svg>
